<svg width="237" height="215" viewBox="0 0 237 215" fill="none" xmlns="http://www.w3.org/2000/svg">
<g clip-path="url(#clip0_4_2991)">
<path d="M114.872 178.935V65.8103H2.31596V178.935H114.872ZM117.188 181.247H0V63.4983H117.188V181.247Z" fill="#0080FF"/>
<path d="M59.3657 94.0914L60.9866 92.4732L94.1821 125.609L92.5613 127.228L59.3657 94.0914Z" fill="#0080FF"/>
<path d="M52.2635 63.7294L54.811 64.1147L56.4322 64.5769L116.493 124.608L114.872 126.226L52.2635 63.7294Z" fill="#0080FF"/>
<path d="M54.5795 78.2171L104.373 127.921L105.839 127.998L107.924 128.229L53.7303 74.0553L54.5795 75.9051V78.2171Z" fill="#0080FF"/>
<path d="M64.5381 65.1165L66.2365 63.4983L117.187 114.435L115.566 116.054L64.5381 65.1165Z" fill="#0080FF"/>
<path d="M76.5038 65.1165L78.1252 63.4983L116.493 101.874L114.872 103.493L76.5038 65.1165Z" fill="#0080FF"/>
<path d="M99.7406 65.8103L101.439 64.1915L116.493 79.2957L114.872 80.9139L99.7406 65.8103Z" fill="#0080FF"/>
<path d="M88.0834 65.1165L89.7048 63.4983L116.493 90.3155L114.872 91.9337L88.0834 65.1165Z" fill="#0080FF"/>
<path d="M117.573 127.921C152.236 127.921 180.491 99.7171 180.491 65.1164C180.491 30.5161 152.236 2.31183 117.573 2.31183C82.9112 2.31183 54.6567 30.5161 54.6567 65.1164C54.6567 99.7171 82.8342 127.921 117.573 127.921ZM117.573 130.233C81.522 130.233 52.3408 101.104 52.3408 65.1164C52.3408 29.129 81.522 0 117.573 0C153.626 0 182.806 29.129 182.806 65.1164C182.806 101.104 153.549 130.233 117.573 130.233Z" fill="white"/>
<path d="M171.69 127.998C206.429 127.998 234.684 99.7939 234.684 65.1164C234.684 30.4391 206.429 2.23477 171.69 2.23477H117.573C82.8342 2.23477 54.5795 30.4391 54.5795 65.1164C54.5795 99.7939 82.8342 127.998 117.573 127.998H171.69ZM171.69 130.31H117.573C81.522 130.31 52.2635 101.104 52.2635 65.1164C52.3407 29.2061 81.522 0 117.573 0H171.69C207.742 0 237 29.2061 237 65.1938C237 101.181 207.742 130.31 171.69 130.31Z" fill="#FFB32C"/>
<path fill-rule="evenodd" clip-rule="evenodd" d="M145.674 129.693L179.41 164.063V129L145.674 129.693Z" fill="#FFB32C"/>
<path fill-rule="evenodd" clip-rule="evenodd" d="M47.6316 180.631L13.8958 215V179.937L47.6316 180.631Z" fill="#0080FF"/>
<path fill-rule="evenodd" clip-rule="evenodd" d="M91.0175 113.126C96.1127 113.126 100.281 117.287 100.281 122.373C100.281 127.459 96.1127 131.62 91.0175 131.62C85.9223 131.62 81.7536 127.459 81.7536 122.373C81.7536 117.287 85.9223 113.126 91.0175 113.126Z" fill="#0080FF"/>
<path d="M91.0175 129.309C94.8776 129.309 97.9652 126.226 97.9652 122.373C97.9652 118.52 94.8776 115.437 91.0175 115.437C87.1575 115.437 84.0693 118.52 84.0693 122.373C84.0693 126.226 87.1575 129.309 91.0175 129.309ZM91.0175 131.62C85.9223 131.62 81.7536 127.459 81.7536 122.373C81.7536 117.287 85.9223 113.126 91.0175 113.126C96.1127 113.126 100.281 117.287 100.281 122.373C100.281 127.536 96.1127 131.62 91.0175 131.62Z" fill="white"/>
<path fill-rule="evenodd" clip-rule="evenodd" d="M59.5972 115.129C63.6115 115.129 66.8537 118.366 66.8537 122.373C66.8537 126.38 63.6115 129.616 59.5972 129.616C55.5829 129.616 52.3406 126.38 52.3406 122.373C52.2634 118.366 55.5829 115.129 59.5972 115.129Z" fill="white"/>
<path fill-rule="evenodd" clip-rule="evenodd" d="M28.7951 115.129C32.8094 115.129 36.0517 118.366 36.0517 122.373C36.0517 126.38 32.8094 129.616 28.7951 129.616C24.7808 129.616 21.5384 126.38 21.5384 122.373C21.5384 118.366 24.7808 115.129 28.7951 115.129Z" fill="white"/>
<path fill-rule="evenodd" clip-rule="evenodd" d="M116.493 55.561C121.665 55.561 125.757 59.7224 125.757 64.8085C125.757 69.8941 121.588 74.0553 116.493 74.0553C111.398 74.0553 107.229 69.8941 107.229 64.8085C107.229 59.7224 111.398 55.561 116.493 55.561Z" fill="#FFB32C"/>
<path d="M116.493 71.8207C120.353 71.8207 123.441 68.738 123.441 64.8853C123.441 61.032 120.353 57.9498 116.493 57.9498C112.633 57.9498 109.545 61.032 109.545 64.8853C109.545 68.6612 112.633 71.8207 116.493 71.8207ZM116.493 74.1327C111.321 74.1327 107.229 69.9715 107.229 64.8853C107.229 59.7992 111.398 55.638 116.493 55.638C121.588 55.638 125.757 59.7992 125.757 64.8853C125.757 69.9715 121.665 74.1327 116.493 74.1327Z" fill="white"/>
<path fill-rule="evenodd" clip-rule="evenodd" d="M149.534 57.5645C153.549 57.5645 156.791 60.801 156.791 64.8085C156.791 68.8155 153.549 72.0518 149.534 72.0518C145.52 72.0518 142.277 68.8155 142.277 64.8085C142.2 60.801 145.442 57.5645 149.534 57.5645Z" fill="white"/>
<path fill-rule="evenodd" clip-rule="evenodd" d="M181.243 57.5645C185.257 57.5645 188.499 60.801 188.499 64.8085C188.499 68.8155 185.257 72.0518 181.243 72.0518C177.228 72.0518 173.986 68.8155 173.986 64.8085C173.986 60.801 177.228 57.5645 181.243 57.5645Z" fill="white"/>
</g>
<defs>
<clipPath id="clip0_4_2991">
<rect width="237" height="215" fill="white"/>
</clipPath>
</defs>
</svg>
